HIERARCHY
ROOT Hips
{
  OFFSET -24.5077 92.419 -73.7383
  CHANNELS 6 Xposition Yposition Zposition Zrotation Xrotation Yrotation
  JOINT LeftUpLeg
  {
    OFFSET 9.63379 -0.250344 0
    CHANNELS 6 Xposition Yposition Zposition Zrotation Xrotation Yrotation
    JOINT LeftLeg
    {
      OFFSET 0 -40.4779 -1.71313
      CHANNELS 6 Xposition Yposition Zposition Zrotation Xrotation Yrotation
      JOINT LeftFoot
      {
        OFFSET 0.0126047 -40.4416 -0.864524
        CHANNELS 6 Xposition Yposition Zposition Zrotation Xrotation Yrotation
        JOINT LeftToeBase
        {
          OFFSET -0.183287 -12.1867 8.28226
          CHANNELS 6 Xposition Yposition Zposition Zrotation Xrotation Yrotation
          End Site
          {
            OFFSET 0 0 9.15615
          }
        }
      }
    }
  }
  JOINT RightUpLeg
  {
    OFFSET -9.63379 -0.250344 0
    CHANNELS 6 Xposition Yposition Zposition Zrotation Xrotation Yrotation
    JOINT RightLeg
    {
      OFFSET 0 -40.478 -1.71313
      CHANNELS 6 Xposition Yposition Zposition Zrotation Xrotation Yrotation
      JOINT RightFoot
      {
        OFFSET -0.0126047 -40.4414 -0.864524
        CHANNELS 6 Xposition Yposition Zposition Zrotation Xrotation Yrotation
        JOINT RightToeBase
        {
          OFFSET 0.183287 -12.1867 8.28226
          CHANNELS 6 Xposition Yposition Zposition Zrotation Xrotation Yrotation
          End Site
          {
            OFFSET 0.00319481 0 9.156
          }
        }
      }
    }
  }
  JOINT Spine
  {
    OFFSET 0 5.60909 -1.89659
    CHANNELS 6 Xposition Yposition Zposition Zrotation Xrotation Yrotation
    JOINT Spine1
    {
      OFFSET 0 6.56349 1.09934
      CHANNELS 6 Xposition Yposition Zposition Zrotation Xrotation Yrotation
      JOINT Spine2
      {
        OFFSET 0 7.57662 1.04304
        CHANNELS 6 Xposition Yposition Zposition Zrotation Xrotation Yrotation
        JOINT Spine3
        {
          OFFSET 0 8.29213 0.399731
          CHANNELS 6 Xposition Yposition Zposition Zrotation Xrotation Yrotation
          JOINT Spine4
          {
            OFFSET 0 8.9581 -0.526302
            CHANNELS 6 Xposition Yposition Zposition Zrotation Xrotation Yrotation
            JOINT Neck
            {
              OFFSET 0 18.4163 -4.35419
              CHANNELS 6 Xposition Yposition Zposition Zrotation Xrotation Yrotation
              JOINT Head
              {
                OFFSET 0 8.97127 1.78542
                CHANNELS 6 Xposition Yposition Zposition Zrotation Xrotation Yrotation
                End Site
                {
                  OFFSET 0 19.3737 0.971395
                }
              }
            }
            JOINT LeftShoulder
            {
              OFFSET 6.14423 15.3316 -3.79324
              CHANNELS 6 Xposition Yposition Zposition Zrotation Xrotation Yrotation
              JOINT LeftArm
              {
                OFFSET 9.01906 -1.11411 -1.79347
                CHANNELS 6 Xposition Yposition Zposition Zrotation Xrotation Yrotation
                JOINT LeftForeArm
                {
                  OFFSET 27.687 0 0
                  CHANNELS 6 Xposition Yposition Zposition Zrotation Xrotation Yrotation
                  JOINT LeftHand
                  {
                    OFFSET 27.8738 0 0
                    CHANNELS 6 Xposition Yposition Zposition Zrotation Xrotation Yrotation
                    End Site
                    {
                      OFFSET 5 0 0
                    }
                  }
                }
              }
            }
            JOINT RightShoulder
            {
              OFFSET -6.14423 15.3316 -3.79324
              CHANNELS 6 Xposition Yposition Zposition Zrotation Xrotation Yrotation
              JOINT RightArm
              {
                OFFSET -9.01884 -1.11411 -1.79347
                CHANNELS 6 Xposition Yposition Zposition Zrotation Xrotation Yrotation
                JOINT RightForeArm
                {
                  OFFSET -27.0381 0.00109999 0
                  CHANNELS 6 Xposition Yposition Zposition Zrotation Xrotation Yrotation
                  JOINT RightHand
                  {
                    OFFSET -28.5227 0 0
                    CHANNELS 6 Xposition Yposition Zposition Zrotation Xrotation Yrotation
                    End Site
                    {
                      OFFSET -5 0 0
                    }
                  }
                }
              }
            }
          }
        }
      }
    }
  }
}
MOTION
Frames:	4
Frame Time:	0.00833333
-24.5077 92.419 -73.7383 0.495012 -0.0667185 1.58535 9.63379 -0.250344 -7.15256e-007 0.380324 -1.06812 10.171 0 -40.4779 -1.71313 -0.0516006 4.31503 -0.0450087 0.0126047 -40.4416 -0.864524 0.0609171 -1.32445 -0.000731425 -0.183287 -12.1867 8.28226 1.47225e-011 -1.11873e-010 -1.0191e-010 -9.63379 -0.250344 -7.15256e-007 -2.42491 -0.108328 6.62225 0 -40.478 -1.71313 0.740447 2.26999 -1.01851 -0.0126047 -40.4414 -0.864524 -0.0475372 -1.30008 -0.00199955 0.183287 -12.1867 8.28226 1.5653e-013 -1.53978e-011 -7.71141e-011 -2.64698e-023 5.60909 -1.89659 -0.168021 0.166955 -0.12909 0 6.56349 1.09934 -0.0902007 0.346998 -0.274 0 7.57662 1.04304 -0.0905908 0.346988 -0.273495 0 8.29213 0.399731 -0.0903067 0.346975 -0.287089 0 8.9581 -0.526302 -0.0891702 0.346958 -0.288265 0 18.4163 -4.35419 -2.44374 1.93627 1.24526 1.05879e-022 8.97127 1.78542 1.36733 -7.15726 0.246952 6.14423 15.3316 -3.79324 -22.4421 1.99972 -3.43955 9.01906 -1.11411 -1.79347 -56.4609 15.9276 -8.95528 27.687 0 0 -5.42613 25.2744 -12.356 27.8738 0 0 11.4311 -0.284876 4.12308 -6.14423 15.3316 -3.79324 26.9021 9.96386 26.0447 -9.01884 -1.11411 -1.79347 58.9793 13.4201 0.537217 -27.0381 0.00109999 5.96046e-008 -8.23763 -2.55234 0.912848 -28.5227 0 0 -4.10418 -2.12952 -7.89544 
-24.5088 92.4212 -73.7369 0.494814 -0.061593 1.58362 9.63379 -0.250344 -7.15256e-007 0.380334 -1.06812 10.1716 0 -40.4779 -1.71313 -0.0516064 4.30764 -0.0450082 0.0126047 -40.4416 -0.864524 0.0609171 -1.31907 -0.000731423 -0.183287 -12.1867 8.28226 1.47225e-011 -1.11873e-010 -1.0191e-010 -9.63379 -0.250344 -7.15256e-007 -2.42289 -0.125471 6.63861 0 -40.478 -1.71313 0.745666 2.29506 -1.02274 -0.0126047 -40.4414 -0.864524 -0.0475376 -1.31346 -0.00199956 0.183287 -12.1867 8.28226 1.5653e-013 -1.53978e-011 -7.71141e-011 -2.64698e-023 5.60909 -1.89659 -0.168021 0.166955 -0.12909 0 6.56349 1.09934 -0.0919415 0.348112 -0.273261 0 7.57662 1.04304 -0.0921665 0.348102 -0.272966 0 8.29213 0.399731 -0.0916163 0.348088 -0.287089 0 8.9581 -0.526302 -0.0899634 0.34807 -0.288265 0 18.4163 -4.35419 -2.4112 1.91975 1.23194 1.05879e-022 8.97127 1.78542 1.34075 -7.13254 0.248286 6.14423 15.3316 -3.79324 -22.4351 1.9984 -3.4366 9.01906 -1.11411 -1.79347 -56.46 15.9343 -8.97442 27.687 0 0 -5.43577 25.2839 -12.3428 27.8738 0 0 11.4274 -0.284883 4.10284 -6.14423 15.3316 -3.79324 26.9157 9.96341 26.0389 -9.01884 -1.11411 -1.79347 58.9696 13.4073 0.542629 -27.0381 0.00109999 5.96046e-008 -8.23621 -2.54886 0.91934 -28.5227 0 0 -4.1032 -2.1325 -7.90565 
-24.5102 92.4229 -73.7356 0.495042 -0.0566661 1.58273 9.63379 -0.250344 -7.15256e-007 0.380337 -1.06812 10.1718 0 -40.4779 -1.71313 -0.0516119 4.30064 -0.0450078 0.0126047 -40.4416 -0.864524 0.0609172 -1.31387 -0.000731422 -0.183287 -12.1867 8.28226 1.47225e-011 -1.11873e-010 -1.0191e-010 -9.63379 -0.250344 -7.15256e-007 -2.42108 -0.140662 6.65314 0 -40.478 -1.71313 0.750178 2.31684 -1.02639 -0.0126047 -40.4414 -0.864524 -0.047538 -1.32499 -0.00199957 0.183287 -12.1867 8.28226 1.5653e-013 -1.53978e-011 -7.71141e-011 -2.64698e-023 5.60909 -1.89659 -0.168021 0.166955 -0.12909 0 6.56349 1.09934 -0.0938404 0.349364 -0.272888 0 7.57662 1.04304 -0.0939182 0.349354 -0.27278 0 8.29213 0.399731 -0.0931463 0.349339 -0.287089 0 8.9581 -0.526302 -0.091064 0.349319 -0.288265 0 18.4163 -4.35419 -2.3758 1.90095 1.21969 1.05879e-022 8.97127 1.78542 1.31359 -7.10768 0.25172 6.14423 15.3316 -3.79324 -22.4274 1.99567 -3.42889 9.01906 -1.11411 -1.79347 -56.4599 15.9414 -8.99393 27.687 0 0 -5.44507 25.2933 -12.3305 27.8738 0 0 11.4249 -0.28489 4.08526 -6.14423 15.3316 -3.79324 26.9302 9.96283 26.0313 -9.01884 -1.11411 -1.79347 58.9598 13.3983 0.550718 -27.0381 0.00109999 5.96046e-008 -8.23482 -2.54585 0.923437 -28.5227 0 0 -4.10175 -2.13521 -7.91535 
-24.5127 92.4235 -73.7344 0.496334 -0.0522359 1.58393 9.63379 -0.250344 -7.15256e-007 0.380324 -1.06812 10.171 0 -40.4779 -1.71313 -0.0516167 4.2946 -0.0450075 0.0126047 -40.4416 -0.864524 0.0609173 -1.30911 -0.000731421 -0.183287 -12.1867 8.28226 1.47225e-011 -1.11873e-010 -1.0191e-010 -9.63379 -0.250344 -7.15256e-007 -2.41985 -0.150975 6.66306 0 -40.478 -1.71313 0.752913 2.33042 -1.0286 -0.0126047 -40.4414 -0.864524 -0.0475383 -1.33184 -0.00199958 0.183287 -12.1867 8.28226 1.5653e-013 -1.53978e-011 -7.71141e-011 -2.64698e-023 5.60909 -1.89659 -0.168021 0.166955 -0.12909 0 6.56349 1.09934 -0.0961345 0.35096 -0.273432 0 7.57662 1.04304 -0.0961097 0.35095 -0.273455 0 8.29213 0.399731 -0.0952277 0.350935 -0.287089 0 8.9581 -0.526302 -0.0929335 0.350914 -0.288266 0 18.4163 -4.35419 -2.33325 1.87645 1.21012 1.05879e-022 8.97127 1.78542 1.28497 -7.08248 0.260406 6.14423 15.3316 -3.79324 -22.4181 1.98942 -3.40929 9.01906 -1.11411 -1.79347 -56.4617 15.9501 -9.01438 27.687 0 0 -5.45353 25.3024 -12.3205 27.8738 0 0 11.4257 -0.284893 4.07429 -6.14423 15.3316 -3.79324 26.9469 9.96194 26.0192 -9.01884 -1.11411 -1.79347 58.9496 13.3988 0.565501 -27.0381 0.00109999 5.96046e-008 -8.23349 -2.54402 0.921543 -28.5227 0 0 -4.09912 -2.13728 -7.92378 
